<svg width="800" height="710" viewBox="0 0 800 710" fill="none" xmlns="http://www.w3.org/2000/svg">
<g clip-path="url(#clip0_102_8004)">
<path d="M349.3 709.6C520.343 709.6 659 570.943 659 399.9C659 228.857 520.343 90.2 349.3 90.2C178.257 90.2 39.6001 228.857 39.6001 399.9C39.6001 570.943 178.257 709.6 349.3 709.6Z" fill="url(#paint0_linear_102_8004)"/>
<path d="M545.7 523.6C504.6 532 458 535.9 402.3 540.5C395.084 541.104 387.819 540.281 380.921 538.077C374.023 535.874 367.627 532.334 362.097 527.658C356.568 522.983 352.013 517.264 348.693 510.828C345.374 504.393 343.354 497.366 342.75 490.15C342.146 482.934 342.969 475.669 345.173 468.771C347.376 461.873 350.916 455.477 355.592 449.947C360.267 444.417 365.986 439.863 372.422 436.543C378.857 433.223 385.884 431.204 393.1 430.6C486.5 422.9 536.9 417.9 575.7 398.5C614.5 379.1 646.5 343.3 698.8 264.2C702.67 257.876 707.775 252.397 713.809 248.09C719.843 243.782 726.683 240.734 733.921 239.128C741.158 237.521 748.646 237.389 755.935 238.74C763.225 240.09 770.168 242.895 776.351 246.987C782.533 251.08 787.827 256.375 791.918 262.559C796.009 268.742 798.812 275.685 800.16 282.976C801.509 290.266 801.375 297.753 799.767 304.99C798.159 312.228 795.109 319.067 790.8 325.1C736.5 407.2 689.8 464.7 625.2 497.1C600.6 509.4 574.5 517.6 545.7 523.6Z" fill="url(#paint1_linear_102_8004)"/>
<path d="M349.3 709.6C471.1 709.6 576.4 639.3 627 537.1C577.8 435.4 506.7 410.1 506.7 410.1L204.6 468.4C146.2 501.4 125.9 577.6 122.2 610.4C151.143 641.732 186.267 666.724 225.355 683.798C264.443 700.872 306.646 709.657 349.3 709.6Z" fill="url(#paint2_linear_102_8004)"/>
<path d="M217.3 465.9C217.3 465.9 237.6 648.7 500 427.8L217.3 465.9Z" fill="#5874F0"/>
<path d="M368.1 32.8C433.2 14.3 419 95.4 408.8 114.6L250.9 148.3C337.5 100.2 317.1 47.2 368.1 32.8Z" fill="#55EF84"/>
<path d="M347.9 136.7H347.3C345.672 136.548 344.169 135.758 343.12 134.503C342.072 133.248 341.561 131.63 341.7 130C343.809 109.555 348.272 89.4213 355 69.9999C369.7 28.6999 392.6 4.49991 421.5 0.0999051C422.308 -0.0279774 423.133 0.00530866 423.928 0.197845C424.724 0.390382 425.473 0.738362 426.133 1.22173C426.793 1.7051 427.35 2.3143 427.774 3.01423C428.197 3.71416 428.478 4.49097 428.6 5.29991C428.831 6.9279 428.417 8.58179 427.445 9.90839C426.474 11.235 425.022 12.1291 423.4 12.3999C364.3 21.3999 354.1 129.9 354 131C353.898 132.547 353.211 133.998 352.078 135.057C350.945 136.116 349.451 136.703 347.9 136.7V136.7Z" fill="black"/>
<path d="M246.7 148.3C202.8 152.7 128 83.1998 179.6 32.5998C189.6 22.6998 202.5 16.1998 216.2 12.9998C320.5 -11.2002 313.5 126.1 410 103.2L246.7 148.3Z" fill="#47C26E"/>
<path d="M321.3 152.2C294 152.2 266.8 139 242.8 114.1C231.841 102.876 222.395 90.2696 214.7 76.5998C214.317 75.8781 214.08 75.0877 214.003 74.2741C213.927 73.4605 214.012 72.6398 214.253 71.8592C214.495 71.0785 214.889 70.3533 215.411 69.7253C215.934 69.0973 216.576 68.5789 217.3 68.1998C218.763 67.4526 220.46 67.3063 222.029 67.792C223.598 68.2776 224.915 69.3569 225.7 70.7998C226.2 71.6998 263.3 139.7 321.3 139.7C322.822 139.893 324.22 140.634 325.234 141.785C326.248 142.935 326.808 144.416 326.808 145.95C326.808 147.483 326.248 148.964 325.234 150.115C324.22 151.266 322.822 152.007 321.3 152.2V152.2Z" fill="black"/>
<path d="M74.1001 232.5C8.80006 245.8 -13.6999 242.9 8.00006 349.9C26.8001 445.5 38.9001 437.5 115.9 421.2L74.1001 232.5Z" fill="url(#paint3_linear_102_8004)"/>
<path d="M112 396.6L79.4002 262C27.4002 271.6 22.4002 271 35.9002 330.6C52.5002 403.8 45.9002 409.3 112 396.6Z" fill="#B6CBFF"/>
<path d="M544.3 139C609.8 127.1 629.7 116 649.3 223.3C667.4 319.1 653.2 316.2 575.6 329.7L544.3 139Z" fill="url(#paint4_linear_102_8004)"/>
<path d="M570.2 305.4L550.3 168.3C602.2 157.9 606.6 155.5 616.2 215.9C628 289.9 636.3 292.6 570.2 305.4Z" fill="#B6CBFF"/>
<path d="M158.801 133.927L431.927 84.291C461.463 78.9504 491.91 85.5475 516.587 102.634C541.263 119.721 558.151 145.9 563.544 175.426L583.426 284.834C590.109 321.755 581.865 359.818 560.506 390.664C539.147 421.511 506.418 442.62 469.507 449.355L235.244 491.927C202.757 497.831 169.255 490.588 142.108 471.791C114.961 452.993 96.3935 424.182 90.4895 391.695L67.5671 265.561C62.2234 236.008 68.8313 205.543 85.9387 180.86C103.046 156.177 129.253 139.296 158.801 133.927V133.927Z" fill="#7194FF"/>
<path d="M498.345 247.545C510.155 245.994 518.222 233.257 516.362 219.096C514.503 204.935 503.421 194.712 491.611 196.263C479.801 197.814 471.735 210.551 473.594 224.712C475.454 238.873 486.535 249.096 498.345 247.545Z" fill="black"/>
<path d="M231.454 235.252L388.974 206.626C403.064 204.065 417.595 207.207 429.37 215.36C441.144 223.513 449.198 236.009 451.759 250.1L459.215 291.128C461.007 300.92 460.854 310.968 458.763 320.701C456.673 330.433 452.685 339.658 447.03 347.849C441.374 356.04 434.16 363.037 425.8 368.441C417.44 373.844 408.097 377.548 398.306 379.341L283.585 400.189C273.791 401.969 263.742 401.802 254.013 399.699C244.284 397.595 235.064 393.596 226.88 387.929C210.352 376.485 199.048 358.943 195.453 339.164L187.997 298.136C185.436 284.045 188.578 269.514 196.731 257.739C204.884 245.965 217.381 237.911 231.471 235.351L231.454 235.252Z" fill="#B6CBFF"/>
<path d="M143.015 320.029C154.851 318.534 162.992 305.818 161.199 291.626C159.406 277.435 148.358 267.142 136.523 268.638C124.688 270.133 116.547 282.849 118.34 297.041C120.132 311.232 131.18 321.524 143.015 320.029Z" fill="black"/>
<path d="M452.3 385.5C466.609 374.445 480.079 362.346 492.6 349.3C493.737 348.11 495.181 347.259 496.772 346.84C498.363 346.422 500.039 346.453 501.614 346.929C503.188 347.406 504.6 348.309 505.692 349.54C506.784 350.771 507.514 352.28 507.8 353.9C513.3 386.5 517.1 449.1 452.4 399.7C451.296 398.878 450.398 397.811 449.777 396.584C449.155 395.356 448.826 394.001 448.817 392.625C448.807 391.249 449.116 389.889 449.721 388.653C450.325 387.417 451.208 386.337 452.3 385.5Z" fill="black"/>
<path d="M469.9 411.3C507.5 431.9 512.3 400.8 510.1 372.6C484.2 364.2 473.3 397 469.9 411.3Z" fill="#FF78B7"/>
<path d="M317.621 347.028L267.252 355.638C261.808 356.569 258.149 361.736 259.08 367.18L259.132 367.486C260.062 372.929 265.23 376.588 270.674 375.658L321.043 367.048C326.487 366.117 330.146 360.95 329.215 355.506L329.163 355.2C328.233 349.757 323.065 346.098 317.621 347.028Z" fill="#7FA0FF"/>
<path d="M402.414 332.561L363.085 339.283C357.532 340.233 353.796 345.484 354.741 351.012C355.686 356.54 360.954 360.252 366.507 359.303L405.836 352.58C411.389 351.631 415.124 346.38 414.179 340.852C413.234 335.324 407.967 331.611 402.414 332.561Z" fill="#7FA0FF"/>
<path d="M253.2 579.8C252.487 579.399 251.702 579.146 250.889 579.055C250.077 578.964 249.254 579.037 248.471 579.271C247.687 579.504 246.958 579.892 246.328 580.412C245.697 580.933 245.178 581.575 244.8 582.3C243.7 584.4 223.8 622 216.1 679.6C220 681.5 224 683.2 228 684.9C235.2 627.1 255.5 588.7 255.7 588.2C256.101 587.487 256.354 586.701 256.445 585.889C256.536 585.076 256.463 584.254 256.229 583.47C255.996 582.687 255.608 581.958 255.087 581.327C254.567 580.697 253.925 580.177 253.2 579.8V579.8Z" fill="black"/>
</g>
<defs>
<linearGradient id="paint0_linear_102_8004" x1="324.24" y1="182.56" x2="376.83" y2="639.12" gradientUnits="userSpaceOnUse">
<stop offset="0.14" stop-color="#5865F0"/>
<stop offset="0.6" stop-color="#3442D7"/>
</linearGradient>
<linearGradient id="paint1_linear_102_8004" x1="461.956" y1="488.675" x2="781.55" y2="301.923" gradientUnits="userSpaceOnUse">
<stop offset="0.12" stop-color="#4572EE"/>
<stop offset="0.45" stop-color="#5D86F7"/>
<stop offset="0.75" stop-color="#6C92FD"/>
<stop offset="1" stop-color="#7196FF"/>
</linearGradient>
<linearGradient id="paint2_linear_102_8004" x1="369.57" y1="770.74" x2="376.62" y2="493.99" gradientUnits="userSpaceOnUse">
<stop offset="0.09" stop-color="#4572EE"/>
<stop offset="0.54" stop-color="#648AFA"/>
<stop offset="0.79" stop-color="#7194FF"/>
</linearGradient>
<linearGradient id="paint3_linear_102_8004" x1="73.3101" y1="480.67" x2="39.5501" y2="215.77" gradientUnits="userSpaceOnUse">
<stop offset="0.09" stop-color="#4572EE"/>
<stop offset="0.43" stop-color="#5D86F7"/>
<stop offset="0.74" stop-color="#6C92FD"/>
<stop offset="1" stop-color="#7196FF"/>
</linearGradient>
<linearGradient id="paint4_linear_102_8004" x1="626.59" y1="410.18" x2="592.84" y2="145.27" gradientUnits="userSpaceOnUse">
<stop offset="0.13" stop-color="#4572EE"/>
<stop offset="0.45" stop-color="#5D86F7"/>
<stop offset="0.75" stop-color="#6C92FD"/>
<stop offset="1" stop-color="#7196FF"/>
</linearGradient>
<clipPath id="clip0_102_8004">
<rect width="800" height="709.6" fill="white"/>
</clipPath>
</defs>
</svg>
